<?xml version="1.0" encoding="UTF-8"?>
<svg viewBox="0 0 1200 682" xmlns="http://www.w3.org/2000/svg" role="img" aria-label="HEX-816"><g transform="translate(0,682) scale(0.1,-0.1)" fill="currentColor" stroke="none"><path d="M930 4210 l0 -2160 680 0 680 0 2 863 3 862 697 3 698 2 2 -865 3 -865 685 0 685 0 3 275 2 275 875 0 c481 0 875 -2 875 -4 0 -4 -370 -565 -1151 -1746 -130 -195 -239 -361 -243 -367 -6 -10 189 -13 962 -13 l969 0 195 318 c107 174 343 557 523 850 287 467 329 531 340 515 7 -10 110 -178 230 -373 120 -195 262 -427 316 -515 55 -88 186 -302 293 -475 l193 -315 977 -3 976 -2 -48 73 c-26 41 -438 665 -915 1388 -478 723 -874 1323 -881 1334 -12 18 44 109 585 950 329 512 667 1037 751 1168 84 131 197 305 251 388 53 83 97 152 97 155 0 2 -426 3 -946 2 l-947 -3 -127 -225 c-70 -124 -201 -358 -292 -520 -90 -162 -238 -426 -328 -587 l-163 -291 -157 271 c-86 150 -244 423 -350 607 -106 184 -247 428 -312 543 l-120 207 -954 0 c-525 0 -954 -2 -954 -4 0 -5 365 -564 461 -708 33 -48 59 -90 59 -93 0 -3 -234 -5 -520 -5 l-520 0 -2 623 -3 622 -687 3 -688 2 0 -750 0 -750 -697 2 -698 3 -3 748 -2 747 -680 0 -680 0 0 -2160z m1320 1365 l0 -745 745 0 745 0 0 745 0 745 640 0 640 0 0 -600 0 -600 -95 0 -95 0 0 -1260 0 -1260 95 0 95 0 -2 -252 -3 -253 -637 -3 -638 -2 0 865 0 865 -745 0 -745 0 -2 -862 -3 -863 -635 0 -635 0 -3 2113 -2 2112 640 0 640 0 0 -745z m5252 223 c53 -92 411 -713 706 -1226 124 -216 229 -389 233 -385 7 8 90 154 464 823 109 195 262 468 340 605 l141 250 867 3 c477 1 867 -2 867 -6 0 -5 -49 -85 -108 -178 -141 -220 -618 -962 -787 -1224 -73 -113 -168 -261 -212 -330 -44 -69 -171 -267 -283 -440 -112 -173 -216 -336 -232 -361 l-29 -46 905 -1372 c498 -755 906 -1374 906 -1376 0 -3 -404 -5 -897 -5 l-898 1 -215 351 c-118 194 -258 422 -311 507 -53 86 -194 316 -314 511 -120 195 -223 363 -230 373 -11 15 -29 -10 -151 -208 -360 -584 -479 -778 -702 -1140 l-239 -390 -893 -3 c-724 -2 -891 0 -887 11 2 7 210 323 462 702 251 380 555 839 675 1020 183 277 223 331 244 333 23 3 26 8 26 40 0 31 32 85 210 352 115 173 210 318 210 322 0 6 -54 89 -421 649 -71 107 -129 203 -129 212 0 9 -4 17 -10 17 -9 0 -225 315 -237 346 -4 12 21 14 166 14 l171 0 0 285 0 285 -360 0 -360 0 -136 208 c-237 360 -334 510 -340 526 -6 15 76 16 869 16 l876 0 43 -72z m-2484 -1941 l2 -1218 -77 3 -78 3 -3 1205 c-1 663 0 1211 3 1218 3 9 25 12 77 10 l73 -3 3 -1218z m1281 981 l160 -243 -432 -5 -432 -5 0 -215 0 -215 575 -2 c572 -3 575 -3 593 -24 15 -19 17 -46 17 -230 l0 -209 -595 0 -595 0 0 -265 0 -265 660 0 660 0 0 -216 0 -217 -27 -43 -28 -44 -892 0 -893 0 0 1220 0 1220 535 0 535 0 159 -242z m571 -3 l0 -245 -167 0 -168 1 -155 236 c-85 130 -156 240 -158 245 -2 4 143 8 322 8 l326 0 0 -245z m-273 -452 c60 -93 113 -174 117 -180 6 -10 -105 -13 -538 -13 l-546 0 0 180 0 180 429 0 429 0 109 -167z m476 -728 c122 -186 221 -342 220 -346 -1 -4 -78 -121 -170 -260 l-168 -254 -3 203 -2 202 -660 0 -660 0 0 225 0 225 595 0 595 0 0 193 c1 174 2 190 16 172 8 -11 115 -173 237 -360z"/><path d="M1495 1986 c-170 -33 -285 -111 -353 -239 -24 -47 -27 -62 -27 -152 0 -89 3 -106 28 -157 18 -36 49 -76 83 -106 l55 -49 -44 -27 c-265 -154 -219 -599 76 -736 122 -57 374 -77 563 -45 118 20 237 78 293 142 173 195 154 485 -40 628 l-57 42 48 41 c32 28 60 65 82 109 30 61 33 76 33 158 0 77 -4 98 -27 147 -53 113 -156 190 -306 229 -101 26 -311 34 -407 15z m393 -41 c187 -45 308 -169 320 -327 8 -119 -40 -219 -145 -297 l-54 -40 42 -22 c151 -76 233 -249 199 -414 -34 -163 -136 -273 -302 -322 -110 -33 -339 -43 -470 -20 -208 36 -334 145 -374 324 -42 191 30 351 193 429 l54 25 -63 42 c-108 72 -153 162 -146 292 9 177 154 309 378 345 76 12 291 3 368 -15z"/><path d="M1585 1730 c-62 -31 -90 -80 -90 -159 0 -116 65 -181 182 -181 69 0 112 23 150 79 32 47 32 140 0 196 -43 77 -157 108 -242 65z m153 -24 c54 -28 75 -62 80 -125 7 -102 -45 -161 -144 -161 -152 0 -211 193 -85 277 39 27 107 31 149 9z"/><path d="M1605 1165 c-49 -17 -107 -80 -123 -133 -15 -51 -15 -124 0 -176 17 -56 94 -132 142 -142 102 -19 180 21 229 116 46 92 34 200 -31 272 -64 71 -135 92 -217 63z m130 -34 c81 -37 121 -113 112 -214 -10 -111 -85 -182 -184 -174 -65 5 -112 39 -143 103 -19 38 -22 57 -18 115 6 85 37 136 100 168 52 26 81 26 133 2z"/><path d="M3049 1943 c-42 -76 -148 -185 -223 -230 -33 -20 -102 -53 -155 -74 l-96 -38 -3 -180 c-1 -100 -1 -181 1 -181 2 0 41 13 88 29 118 40 187 72 269 125 l70 46 0 -480 0 -480 220 0 220 0 0 760 0 760 -179 0 -179 0 -33 -57z m361 -703 l0 -730 -190 0 -190 0 0 495 0 494 -81 -54 c-44 -31 -103 -67 -130 -81 -44 -22 -202 -84 -215 -84 -2 0 -3 68 -2 151 l3 151 63 24 c183 68 314 169 396 302 l39 62 153 0 154 0 0 -730z"/><path d="M4415 1986 c-254 -50 -408 -207 -471 -481 -15 -64 -19 -120 -19 -285 0 -179 3 -216 23 -294 45 -178 153 -331 279 -395 97 -49 158 -62 304 -68 198 -8 315 21 427 105 128 96 192 234 192 411 0 158 -36 253 -134 358 -159 171 -424 201 -603 67 -17 -13 -36 -24 -41 -24 -9 0 -2 68 17 162 24 115 99 186 183 175 51 -7 84 -38 106 -99 20 -57 3 -55 235 -28 237 28 219 22 203 68 -60 168 -170 274 -332 317 -83 22 -282 28 -369 11z m291 -27 c143 -20 250 -81 316 -181 35 -53 66 -124 57 -132 -4 -4 -323 -46 -352 -46 -10 0 -17 7 -17 16 0 33 -45 96 -82 115 -47 24 -91 24 -145 0 -79 -36 -121 -125 -143 -301 -17 -142 -20 -139 52 -80 78 62 134 89 217 103 211 35 426 -102 492 -314 21 -68 25 -214 8 -288 -27 -119 -132 -252 -239 -304 -161 -79 -452 -76 -618 5 -80 39 -175 139 -220 230 -53 109 -73 203 -79 381 -12 327 46 520 198 663 61 57 157 107 239 123 30 6 64 13 75 15 42 8 166 6 241 -5z"/><path d="M4500 1228 c-94 -26 -153 -120 -153 -242 0 -94 16 -149 61 -198 67 -74 156 -96 237 -59 87 39 132 138 122 267 -7 88 -32 149 -80 191 -55 48 -116 62 -187 41z m117 -33 c87 -37 117 -95 118 -225 0 -86 -3 -99 -28 -143 -74 -126 -237 -111 -306 28 -20 39 -25 63 -24 124 0 88 16 132 64 179 52 50 113 63 176 37z"/></g></svg>
